<svg xmlns="http://www.w3.org/2000/svg" viewBox="0 0 512 512" role="img" aria-label="ZS monogram option 4">
  <defs>
    <radialGradient id="bg" cx="18%" cy="14%" r="88%">
      <stop offset="0%" stop-color="#ecfeff"/>
      <stop offset="100%" stop-color="#bfdbfe"/>
    </radialGradient>
    <linearGradient id="ink" x1="0" x2="1" y1="0" y2="1">
      <stop offset="0%" stop-color="#1d4ed8"/>
      <stop offset="100%" stop-color="#0f766e"/>
    </linearGradient>
  </defs>
  <rect width="512" height="512" rx="120" fill="url(#bg)"/>
  <path d="M98 148h316v46L184 318h230v46H98v-46l230-124H98z" fill="url(#ink)"/>
  <path d="M313 132c57 0 100 28 100 69 0 26-18 47-47 56 32 9 52 31 52 61 0 47-44 78-108 78-38 0-71-11-94-30l26-36c18 15 42 24 67 24 28 0 47-12 47-30 0-18-19-31-48-31h-30v-37h27c27 0 45-11 45-29 0-17-16-28-38-28-19 0-40 8-55 21l-25-36c24-20 58-32 81-32z" fill="#0f172a" opacity="0.9"/>
</svg>
